<mxfile host="app.diagrams.net" modified="2023-04-05T06:04:42.165Z" agent="Mozilla/5.0 (Windows NT 10.0; Win64; x64) AppleWebKit/537.36 (KHTML, like Gecko) Chrome/110.0.0.0 Safari/537.36" etag="Pt8F_lOiONgBl1UAxUpB" version="21.1.4" type="github">
  <diagram name="Trang-1" id="ZbRz-hckCCUjyN23ai8m">
    <mxGraphModel dx="1114" dy="584" grid="1" gridSize="10" guides="1" tooltips="1" connect="1" arrows="1" fold="1" page="1" pageScale="1" pageWidth="827" pageHeight="1169" math="0" shadow="0">
      <root>
        <mxCell id="0" />
        <mxCell id="1" parent="0" />
        <mxCell id="nA8IXqnX41yCRNvTGrDV-3" style="edgeStyle=orthogonalEdgeStyle;rounded=0;orthogonalLoop=1;jettySize=auto;html=1;entryX=0.5;entryY=0;entryDx=0;entryDy=0;" parent="1" source="nA8IXqnX41yCRNvTGrDV-1" target="nA8IXqnX41yCRNvTGrDV-2" edge="1">
          <mxGeometry relative="1" as="geometry" />
        </mxCell>
        <mxCell id="nA8IXqnX41yCRNvTGrDV-1" value="Bắt đầu" style="ellipse;whiteSpace=wrap;html=1;" parent="1" vertex="1">
          <mxGeometry x="300" y="70" width="60" height="60" as="geometry" />
        </mxCell>
        <mxCell id="nA8IXqnX41yCRNvTGrDV-5" style="edgeStyle=orthogonalEdgeStyle;rounded=0;orthogonalLoop=1;jettySize=auto;html=1;entryX=0.5;entryY=0;entryDx=0;entryDy=0;" parent="1" source="nA8IXqnX41yCRNvTGrDV-2" target="nA8IXqnX41yCRNvTGrDV-4" edge="1">
          <mxGeometry relative="1" as="geometry" />
        </mxCell>
        <mxCell id="nA8IXqnX41yCRNvTGrDV-2" value="Ghi nhận thông tin từ các cảm biến" style="rounded=1;whiteSpace=wrap;html=1;" parent="1" vertex="1">
          <mxGeometry x="285" y="150" width="90" height="60" as="geometry" />
        </mxCell>
        <mxCell id="nA8IXqnX41yCRNvTGrDV-8" value="true" style="edgeStyle=orthogonalEdgeStyle;rounded=0;orthogonalLoop=1;jettySize=auto;html=1;entryX=0;entryY=0.5;entryDx=0;entryDy=0;" parent="1" source="nA8IXqnX41yCRNvTGrDV-4" target="nA8IXqnX41yCRNvTGrDV-6" edge="1">
          <mxGeometry relative="1" as="geometry" />
        </mxCell>
        <mxCell id="nA8IXqnX41yCRNvTGrDV-9" value="no" style="edgeStyle=orthogonalEdgeStyle;rounded=0;orthogonalLoop=1;jettySize=auto;html=1;entryX=0.5;entryY=0;entryDx=0;entryDy=0;" parent="1" source="nA8IXqnX41yCRNvTGrDV-4" target="nA8IXqnX41yCRNvTGrDV-7" edge="1">
          <mxGeometry relative="1" as="geometry" />
        </mxCell>
        <mxCell id="nA8IXqnX41yCRNvTGrDV-4" value="Có kết nối mạng hay không?" style="rhombus;whiteSpace=wrap;html=1;" parent="1" vertex="1">
          <mxGeometry x="280" y="230" width="100" height="80" as="geometry" />
        </mxCell>
        <mxCell id="nX6aUdpyZatrIhJqnD4u-4" style="edgeStyle=orthogonalEdgeStyle;rounded=0;orthogonalLoop=1;jettySize=auto;html=1;entryX=1;entryY=0.5;entryDx=0;entryDy=0;" edge="1" parent="1" source="nA8IXqnX41yCRNvTGrDV-6" target="nX6aUdpyZatrIhJqnD4u-2">
          <mxGeometry relative="1" as="geometry">
            <Array as="points">
              <mxPoint x="470" y="460" />
            </Array>
          </mxGeometry>
        </mxCell>
        <mxCell id="nA8IXqnX41yCRNvTGrDV-6" value="Lấy model mới từ internet" style="rounded=1;whiteSpace=wrap;html=1;" parent="1" vertex="1">
          <mxGeometry x="420" y="240" width="70" height="60" as="geometry" />
        </mxCell>
        <mxCell id="nX6aUdpyZatrIhJqnD4u-1" style="edgeStyle=orthogonalEdgeStyle;rounded=0;orthogonalLoop=1;jettySize=auto;html=1;entryX=0.5;entryY=0;entryDx=0;entryDy=0;" edge="1" parent="1" source="nA8IXqnX41yCRNvTGrDV-7" target="nX6aUdpyZatrIhJqnD4u-2">
          <mxGeometry relative="1" as="geometry">
            <mxPoint x="330" y="450" as="targetPoint" />
          </mxGeometry>
        </mxCell>
        <mxCell id="nA8IXqnX41yCRNvTGrDV-7" value="Lấy model được nhúng trong mạch" style="rounded=1;whiteSpace=wrap;html=1;" parent="1" vertex="1">
          <mxGeometry x="270" y="340" width="120" height="60" as="geometry" />
        </mxCell>
        <mxCell id="nX6aUdpyZatrIhJqnD4u-5" style="edgeStyle=orthogonalEdgeStyle;rounded=0;orthogonalLoop=1;jettySize=auto;html=1;" edge="1" parent="1" source="nX6aUdpyZatrIhJqnD4u-2" target="nX6aUdpyZatrIhJqnD4u-6">
          <mxGeometry relative="1" as="geometry">
            <mxPoint x="220" y="460" as="targetPoint" />
          </mxGeometry>
        </mxCell>
        <mxCell id="nX6aUdpyZatrIhJqnD4u-2" value="Model đưa ra quyết định tăng giảm nhiệt độ" style="rounded=1;whiteSpace=wrap;html=1;" vertex="1" parent="1">
          <mxGeometry x="270" y="430" width="120" height="60" as="geometry" />
        </mxCell>
        <mxCell id="nX6aUdpyZatrIhJqnD4u-8" style="edgeStyle=orthogonalEdgeStyle;rounded=0;orthogonalLoop=1;jettySize=auto;html=1;entryX=0.5;entryY=1;entryDx=0;entryDy=0;" edge="1" parent="1" source="nX6aUdpyZatrIhJqnD4u-6" target="nX6aUdpyZatrIhJqnD4u-9">
          <mxGeometry relative="1" as="geometry">
            <mxPoint x="180" y="390" as="targetPoint" />
          </mxGeometry>
        </mxCell>
        <mxCell id="nX6aUdpyZatrIhJqnD4u-6" value="Lưu lại dữ liệu quyết định kèm với các yếu tố hiện tại" style="rounded=1;whiteSpace=wrap;html=1;" vertex="1" parent="1">
          <mxGeometry x="115" y="430" width="120" height="60" as="geometry" />
        </mxCell>
        <mxCell id="nX6aUdpyZatrIhJqnD4u-13" value="true" style="edgeStyle=orthogonalEdgeStyle;rounded=0;orthogonalLoop=1;jettySize=auto;html=1;entryX=0;entryY=0.5;entryDx=0;entryDy=0;" edge="1" parent="1" source="nX6aUdpyZatrIhJqnD4u-7" target="nA8IXqnX41yCRNvTGrDV-4">
          <mxGeometry relative="1" as="geometry" />
        </mxCell>
        <mxCell id="nX6aUdpyZatrIhJqnD4u-14" value="false" style="edgeStyle=orthogonalEdgeStyle;rounded=0;orthogonalLoop=1;jettySize=auto;html=1;entryX=0;entryY=0.5;entryDx=0;entryDy=0;" edge="1" parent="1" source="nX6aUdpyZatrIhJqnD4u-7" target="nA8IXqnX41yCRNvTGrDV-2">
          <mxGeometry relative="1" as="geometry">
            <Array as="points">
              <mxPoint x="175" y="180" />
            </Array>
          </mxGeometry>
        </mxCell>
        <mxCell id="nX6aUdpyZatrIhJqnD4u-7" value="Người dùng &lt;br&gt;có thay đổi &lt;br&gt;nhiệt độ hay không?" style="rhombus;whiteSpace=wrap;html=1;" vertex="1" parent="1">
          <mxGeometry x="120" y="225" width="110" height="90" as="geometry" />
        </mxCell>
        <mxCell id="nX6aUdpyZatrIhJqnD4u-12" style="edgeStyle=orthogonalEdgeStyle;rounded=0;orthogonalLoop=1;jettySize=auto;html=1;" edge="1" parent="1" source="nX6aUdpyZatrIhJqnD4u-9" target="nX6aUdpyZatrIhJqnD4u-7">
          <mxGeometry relative="1" as="geometry" />
        </mxCell>
        <mxCell id="nX6aUdpyZatrIhJqnD4u-9" value="Đợi 30 giây" style="rounded=1;whiteSpace=wrap;html=1;" vertex="1" parent="1">
          <mxGeometry x="115" y="340" width="120" height="60" as="geometry" />
        </mxCell>
      </root>
    </mxGraphModel>
  </diagram>
</mxfile>
